REM DIRINDEX 1\2,1\3
REM DIRNAME folder01,folder02,folder03
TITLE ""
FILE "NextStage_4th-Part5-P215-3.mp3" MP3
  TRACK 01 AUDIO
    TITLE "0:"
    INDEX 01 00:00:00
  TRACK 02 AUDIO
    TITLE "3:cjc036_2943"
    INDEX 01 00:00:07
  TRACK 03 AUDIO
    TITLE "0:"
    INDEX 01 00:02:38
  TRACK 04 AUDIO
    TITLE "3:cjc036_2944"
    INDEX 01 00:02:49
  TRACK 05 AUDIO
    TITLE "0:"
    INDEX 01 00:03:41
  TRACK 06 AUDIO
    TITLE "2:cjc036_2945"
    INDEX 01 00:03:49
  TRACK 07 AUDIO
    TITLE "0:"
    INDEX 01 00:06:06
  TRACK 08 AUDIO
    TITLE "3:cjc036_2946"
    INDEX 01 00:06:22
  TRACK 09 AUDIO
    TITLE "0:"
    INDEX 01 00:07:13
  TRACK 10 AUDIO
    TITLE "2:cjc036_2947"
    INDEX 01 00:07:15
  TRACK 11 AUDIO
    TITLE "0:"
    INDEX 01 00:10:72
  TRACK 12 AUDIO
    TITLE "3:cjc036_2948"
    INDEX 01 00:11:17
  TRACK 13 AUDIO
    TITLE "0:"
    INDEX 01 00:12:14
  TRACK 14 AUDIO
    TITLE "2:cjc036_2949"
    INDEX 01 00:12:26
  TRACK 15 AUDIO
    TITLE "0:"
    INDEX 01 00:14:58
  TRACK 16 AUDIO
    TITLE "3:cjc036_2950"
    INDEX 01 00:15:38
  TRACK 17 AUDIO
    TITLE "0:"
    INDEX 01 00:17:70
  TRACK 18 AUDIO
    TITLE "3:cjc036_2951"
    INDEX 01 00:18:09
  TRACK 19 AUDIO
    TITLE "0:"
    INDEX 01 00:19:03
  TRACK 20 AUDIO
    TITLE "2:cjc036_2952"
    INDEX 01 00:19:05
  TRACK 21 AUDIO
    TITLE "0:"
    INDEX 01 00:20:69
  TRACK 22 AUDIO
    TITLE "3:cjc036_2953"
    INDEX 01 00:20:73
  TRACK 23 AUDIO
    TITLE "0:"
    INDEX 01 00:21:74
  TRACK 24 AUDIO
    TITLE "2:cjc036_2954"
    INDEX 01 00:22:07
  TRACK 25 AUDIO
    TITLE "0:"
    INDEX 01 00:24:18
  TRACK 26 AUDIO
    TITLE "3:cjc036_2955"
    INDEX 01 00:24:20
  TRACK 27 AUDIO
    TITLE "0:"
    INDEX 01 00:25:27
  TRACK 28 AUDIO
    TITLE "2:cjc036_2956"
    INDEX 01 00:25:29
  TRACK 29 AUDIO
    TITLE "0:"
    INDEX 01 00:27:53
  TRACK 30 AUDIO
    TITLE "3:cjc036_2957"
    INDEX 01 00:28:29
  TRACK 31 AUDIO
    TITLE "0:"
    INDEX 01 00:30:59
  TRACK 32 AUDIO
    TITLE "3:cjc036_2958"
    INDEX 01 00:31:08
  TRACK 33 AUDIO
    TITLE "0:"
    INDEX 01 00:32:03
  TRACK 34 AUDIO
    TITLE "2:cjc036_2959"
    INDEX 01 00:32:15
  TRACK 35 AUDIO
    TITLE "0:"
    INDEX 01 00:34:47
  TRACK 36 AUDIO
    TITLE "3:cjc036_2960"
    INDEX 01 00:34:65
  TRACK 37 AUDIO
    TITLE "0:"
    INDEX 01 00:35:63
  TRACK 38 AUDIO
    TITLE "2:cjc036_2961"
    INDEX 01 00:35:70
  TRACK 39 AUDIO
    TITLE "0:"
    INDEX 01 00:38:12
  TRACK 40 AUDIO
    TITLE "3:cjc036_2962"
    INDEX 01 00:38:30
  TRACK 41 AUDIO
    TITLE "0:"
    INDEX 01 00:39:27
  TRACK 42 AUDIO
    TITLE "2:cjc036_2963"
    INDEX 01 00:39:29
  TRACK 43 AUDIO
    TITLE "0:"
    INDEX 01 00:41:61
  TRACK 44 AUDIO
    TITLE "3:cjc036_2964"
    INDEX 01 00:42:49
  TRACK 45 AUDIO
    TITLE "0:"
    INDEX 01 00:45:02
  TRACK 46 AUDIO
    TITLE "3:cjc036_2965"
    INDEX 01 00:45:24
  TRACK 47 AUDIO
    TITLE "0:"
    INDEX 01 00:46:19
  TRACK 48 AUDIO
    TITLE "2:cjc036_2966"
    INDEX 01 00:46:21
  TRACK 49 AUDIO
    TITLE "0:"
    INDEX 01 00:48:36
  TRACK 50 AUDIO
    TITLE "3:cjc036_2967"
    INDEX 01 00:48:51
  TRACK 51 AUDIO
    TITLE "0:"
    INDEX 01 00:49:45
  TRACK 52 AUDIO
    TITLE "2:cjc036_2968"
    INDEX 01 00:49:49
  TRACK 53 AUDIO
    TITLE "0:"
    INDEX 01 00:52:12
  TRACK 54 AUDIO
    TITLE "3:cjc036_2969"
    INDEX 01 00:52:20
  TRACK 55 AUDIO
    TITLE "0:"
    INDEX 01 00:53:25
  TRACK 56 AUDIO
    TITLE "2:cjc036_2970"
    INDEX 01 00:53:29
  TRACK 57 AUDIO
    TITLE "0:"
    INDEX 01 00:55:73
  TRACK 58 AUDIO
    TITLE "3:cjc036_2971"
    INDEX 01 00:56:53
  TRACK 59 AUDIO
    TITLE "0:"
    INDEX 01 00:59:08
  TRACK 60 AUDIO
    TITLE "3:cjc036_2972"
    INDEX 01 00:59:12
  TRACK 61 AUDIO
    TITLE "0:"
    INDEX 01 01:00:13
  TRACK 62 AUDIO
    TITLE "2:cjc036_2973"
    INDEX 01 01:00:15
  TRACK 63 AUDIO
    TITLE "0:"
    INDEX 01 01:03:29
  TRACK 64 AUDIO
    TITLE "3:cjc036_2974"
    INDEX 01 01:03:41
  TRACK 65 AUDIO
    TITLE "0:"
    INDEX 01 01:04:41
  TRACK 66 AUDIO
    TITLE "2:cjc036_2975"
    INDEX 01 01:04:45
  TRACK 67 AUDIO
    TITLE "0:"
    INDEX 01 01:07:06
  TRACK 68 AUDIO
    TITLE "3:cjc036_2976"
    INDEX 01 01:07:17
  TRACK 69 AUDIO
    TITLE "0:"
    INDEX 01 01:08:19
  TRACK 70 AUDIO
    TITLE "2:cjc036_2977"
    INDEX 01 01:08:27
  TRACK 71 AUDIO
    TITLE "0:"
    INDEX 01 01:11:51
  TRACK 72 AUDIO
    TITLE "3:cjc036_2978"
    INDEX 01 01:11:56
  TRACK 73 AUDIO
    TITLE "0:"
    INDEX 01 01:12:54
  TRACK 74 AUDIO
    TITLE "2:cjc036_2979"
    INDEX 01 01:12:56
  TRACK 75 AUDIO
    TITLE "0:"
    INDEX 01 01:16:26
  TRACK 76 AUDIO
    TITLE "3:cjc036_2980"
    INDEX 01 01:16:71
  TRACK 77 AUDIO
    TITLE "0:"
    INDEX 01 01:19:09
  TRACK 78 AUDIO
    TITLE "3:cjc036_2981"
    INDEX 01 01:19:30
  TRACK 79 AUDIO
    TITLE "0:"
    INDEX 01 01:20:24
  TRACK 80 AUDIO
    TITLE "2:cjc036_2982"
    INDEX 01 01:20:32
  TRACK 81 AUDIO
    TITLE "0:"
    INDEX 01 01:24:57
  TRACK 82 AUDIO
    TITLE "3:cjc036_2983"
    INDEX 01 01:25:08
  TRACK 83 AUDIO
    TITLE "0:"
    INDEX 01 01:25:74
  TRACK 84 AUDIO
    TITLE "2:cjc036_2984"
    INDEX 01 01:26:01
  TRACK 85 AUDIO
    TITLE "0:"
    INDEX 01 01:29:45
  TRACK 86 AUDIO
    TITLE "3:cjc036_2985"
    INDEX 01 01:29:64
  TRACK 87 AUDIO
    TITLE "0:"
    INDEX 01 01:30:62
  TRACK 88 AUDIO
    TITLE "2:cjc036_2986"
    INDEX 01 01:30:66
  TRACK 89 AUDIO
    TITLE "0:"
    INDEX 01 01:35:71
